<svg width="40" height="40" viewBox="0 0 40 40" fill="none" xmlns="http://www.w3.org/2000/svg">
<g clip-path="url(#clip0_1_470)">
<path d="M39.9448 21.4998H32.8002C26.5593 21.4998 21.5002 26.559 21.5002 32.7998V39.9444C31.3501 39.214 39.2144 31.3497 39.9448 21.4998Z" fill="url(#paint0_linear_1_470)" fill-opacity="0.8"/>
<path d="M18.5003 39.9444V32.7998C18.5003 26.559 13.4411 21.4998 7.20026 21.4998H0.0556641C0.785998 31.3497 8.65036 39.214 18.5003 39.9444Z" fill="url(#paint1_linear_1_470)" fill-opacity="0.8"/>
<path d="M39.9448 18.4998C39.2144 8.64987 31.3501 0.78551 21.5002 0.0551758V7.19977C21.5002 13.4406 26.5593 18.4998 32.8002 18.4998H39.9448Z" fill="url(#paint2_linear_1_470)" fill-opacity="0.8"/>
<path d="M18.5003 0.0551758C8.65036 0.78551 0.785998 8.64987 0.0556641 18.4998H7.20026C13.4411 18.4998 18.5003 13.4406 18.5003 7.19977V0.0551758Z" fill="url(#paint3_linear_1_470)" fill-opacity="0.8"/>
<path d="M13.583 19.9998C16.3555 18.6145 18.615 16.355 20.0002 13.5825C21.3855 16.355 23.6449 18.6145 26.4175 19.9998C23.6449 21.385 21.3855 23.6445 20.0002 26.417C18.615 23.6445 16.3555 21.385 13.583 19.9998Z" fill="url(#paint4_linear_1_470)" fill-opacity="0.8"/>
</g>
<defs>
<linearGradient id="paint0_linear_1_470" x1="21.7061" y1="30.7221" x2="36.5071" y2="30.7221" gradientUnits="userSpaceOnUse">
<stop stop-color="#2F82EF"/>
<stop offset="1" stop-color="#FF3B3B"/>
</linearGradient>
<linearGradient id="paint1_linear_1_470" x1="0.261519" y1="30.7221" x2="15.0625" y2="30.7221" gradientUnits="userSpaceOnUse">
<stop stop-color="#2F82EF"/>
<stop offset="1" stop-color="#FF3B3B"/>
</linearGradient>
<linearGradient id="paint2_linear_1_470" x1="21.7061" y1="9.27749" x2="36.5071" y2="9.27749" gradientUnits="userSpaceOnUse">
<stop stop-color="#2F82EF"/>
<stop offset="1" stop-color="#FF3B3B"/>
</linearGradient>
<linearGradient id="paint3_linear_1_470" x1="0.261519" y1="9.27749" x2="15.0625" y2="9.27749" gradientUnits="userSpaceOnUse">
<stop stop-color="#2F82EF"/>
<stop offset="1" stop-color="#FF3B3B"/>
</linearGradient>
<linearGradient id="paint4_linear_1_470" x1="13.7262" y1="19.9998" x2="24.0254" y2="19.9998" gradientUnits="userSpaceOnUse">
<stop stop-color="#2F82EF"/>
<stop offset="1" stop-color="#FF3B3B"/>
</linearGradient>
<clipPath id="clip0_1_470">
<rect width="40" height="40" fill="white"/>
</clipPath>
</defs>
</svg>
